<svg width="21" height="20" viewBox="0 0 21 20" fill="none" xmlns="http://www.w3.org/2000/svg">
<path d="M19.8028 3.3336L19.8034 3.33417C20.2502 3.77521 20.5 4.37175 20.5 4.99229C20.5 5.61282 20.2502 6.20937 19.8034 6.6504L19.8012 6.65258C19.5809 6.87271 19.3179 7.04766 19.0274 7.16683C18.7369 7.286 18.425 7.34691 18.11 7.34581H18.1082H17.8547H17.5023L17.3838 7.67765L14.9119 14.5993L14.7858 14.9523L15.0893 15.1723C15.2199 15.267 15.3435 15.3707 15.4591 15.4826C15.681 15.7009 15.8567 15.9599 15.9765 16.2444C16.0966 16.5295 16.1583 16.8349 16.1583 17.1432C16.1583 17.4515 16.0966 17.7569 15.9765 18.042C15.8565 18.3271 15.6803 18.5864 15.4579 18.805L15.4565 18.8064C15.2349 19.0258 14.9712 19.2002 14.6803 19.3194C14.3895 19.4386 14.0773 19.5 13.762 19.5C13.4466 19.5 13.1345 19.4386 12.8436 19.3194C12.5527 19.2002 12.289 19.0258 12.0674 18.8064L12.0666 18.8056C11.7353 18.479 11.5091 18.0646 11.4151 17.614C11.3211 17.1635 11.3631 16.6956 11.5362 16.268L11.6832 15.9047L11.3656 15.6752L5.02733 11.0935L4.71859 10.8703L4.42147 11.1087C3.99159 11.4537 3.45311 11.6424 2.89694 11.6417L2.89456 11.6417C2.57955 11.6428 2.26763 11.5819 1.97714 11.4627C1.68666 11.3436 1.42366 11.1686 1.20335 10.9485L1.20037 10.9455C0.977925 10.727 0.801797 10.4676 0.681746 10.1825C0.561702 9.89743 0.5 9.59201 0.5 9.28374C0.5 8.97546 0.561702 8.67004 0.681746 8.38496C0.801796 8.09986 0.977925 7.8405 1.20037 7.62193L1.20153 7.62079C1.59164 7.23496 2.10612 6.99308 2.65817 6.93768C3.21024 6.88228 3.7642 7.01699 4.22596 7.31797L4.54554 7.52628L4.83087 7.27308L7.90042 4.54906L8.19352 4.28895L8.01099 3.94219C7.77702 3.4977 7.69307 2.99184 7.77075 2.49781C7.84843 2.00374 8.08394 1.54589 8.4444 1.1912L8.44443 1.19118C8.78108 0.859867 9.21096 0.634176 9.67963 0.543932C10.1483 0.453681 10.6336 0.5032 11.0732 0.685878C11.5128 0.868529 11.8862 1.17569 12.1466 1.56714C12.4069 1.95851 12.5428 2.41675 12.5376 2.88349L12.5334 3.271L12.9076 3.37178L15.461 4.05949L15.8314 4.15924L16.0237 3.82732C16.1276 3.648 16.2567 3.4838 16.4074 3.33967L16.4075 3.33972L16.4137 3.3336C16.6353 3.11418 16.899 2.93972 17.1899 2.82055C17.4807 2.70139 17.7929 2.63996 18.1082 2.63996C18.4236 2.63996 18.7357 2.70139 19.0266 2.82055C19.3175 2.93972 19.5812 3.11418 19.8028 3.3336ZM13.9741 14.7924L14.3571 14.8242L14.4864 14.4623L16.9583 7.54062L17.0844 7.18762L16.7809 6.96763C16.6499 6.87266 16.526 6.76864 16.4101 6.65637C16.1835 6.43571 16.005 6.17246 15.8849 5.8827C15.7648 5.59272 15.7056 5.28198 15.7107 4.96917L15.717 4.57957L15.3408 4.47823L12.7873 3.79053L12.4169 3.69077L12.2246 4.02269C12.1208 4.20202 11.9916 4.36622 11.8409 4.51035L11.8408 4.51026L11.833 4.51802C11.6127 4.73815 11.3497 4.9131 11.0592 5.03227C10.7688 5.15144 10.4568 5.21235 10.1418 5.21125L10.141 5.21125C9.66706 5.21041 9.20417 5.07351 8.80881 4.81797L8.48971 4.61172L8.20552 4.86392L5.13597 7.58794L4.84439 7.8467L5.02423 8.19257C5.1816 8.49525 5.27152 8.82722 5.28826 9.16635C5.305 9.50548 5.2482 9.84437 5.12146 10.1605L4.97614 10.523L5.29264 10.7518L11.6309 15.3335L11.9389 15.5561L12.2358 15.319C12.7237 14.9296 13.3465 14.7403 13.9741 14.7924Z" fill="#DDDDDD" fill-opacity="0.5" stroke="#6D7175"/>
</svg>
