<svg width="14" height="14" viewBox="0 0 14 14" fill="none" xmlns="http://www.w3.org/2000/svg">
<path d="M3.09762 2.15548L3.8693 1.3838C3.88788 1.36512 3.90086 1.3416 3.90674 1.31591C3.91262 1.29022 3.91117 1.2634 3.90257 1.23849C3.89396 1.21359 3.87854 1.19159 3.85805 1.17502C3.83756 1.15845 3.81283 1.14795 3.78668 1.14474L0.970663 0.812509C0.881015 0.801962 0.803671 0.877548 0.814218 0.968954L1.14644 3.78497C1.16051 3.90099 1.30289 3.9502 1.38551 3.86759L2.15367 3.09942L4.50387 5.44786C4.55836 5.50235 4.64801 5.50235 4.7025 5.44786L5.44781 4.70431C5.5023 4.64981 5.5023 4.56017 5.44781 4.50567L3.09762 2.15548ZM9.29742 5.44786C9.35191 5.50235 9.44156 5.50235 9.49605 5.44786L11.8462 3.09942L12.6144 3.86759C12.6331 3.88617 12.6566 3.89915 12.6823 3.90503C12.708 3.91091 12.7348 3.90947 12.7597 3.90086C12.7846 3.89225 12.8066 3.87683 12.8232 3.85634C12.8398 3.83585 12.8503 3.81113 12.8535 3.78497L13.1857 0.970712C13.1962 0.881063 13.1207 0.80372 13.0293 0.814267L10.2132 1.14649C10.0972 1.16056 10.048 1.30294 10.1306 1.38556L10.9023 2.15724L8.55211 4.50392C8.52594 4.53035 8.51126 4.56604 8.51126 4.60323C8.51126 4.64043 8.52594 4.67612 8.55211 4.70255L9.29742 5.44786ZM12.8535 10.215C12.8394 10.099 12.697 10.0498 12.6144 10.1324L11.8462 10.9006L9.49605 8.55216C9.46962 8.52599 9.43393 8.51131 9.39674 8.51131C9.35954 8.51131 9.32385 8.52599 9.29742 8.55216L8.55211 9.29571C8.52594 9.32214 8.51126 9.35783 8.51126 9.39503C8.51126 9.43222 8.52594 9.46792 8.55211 9.49435L10.9023 11.8445L10.1306 12.6162C10.112 12.6349 10.0991 12.6584 10.0932 12.6841C10.0873 12.7098 10.0887 12.7366 10.0974 12.7615C10.106 12.7864 10.1214 12.8084 10.1419 12.825C10.1624 12.8416 10.1871 12.8521 10.2132 12.8553L13.0293 13.1875C13.1189 13.1981 13.1962 13.1225 13.1857 13.0311L12.8535 10.215ZM4.7025 8.55216C4.67607 8.52599 4.64038 8.51131 4.60318 8.51131C4.56599 8.51131 4.5303 8.52599 4.50387 8.55216L2.15367 10.9006L1.38551 10.1324C1.36683 10.1138 1.34331 10.1009 1.31762 10.095C1.29193 10.0891 1.26511 10.0906 1.2402 10.0992C1.21529 10.1078 1.1933 10.1232 1.17673 10.1437C1.16015 10.1642 1.14966 10.1889 1.14644 10.215L0.814218 13.0293C0.803671 13.119 0.879257 13.1963 0.970663 13.1858L3.78668 12.8535C3.90269 12.8395 3.95191 12.6971 3.8693 12.6145L3.09762 11.8445L5.44781 9.4961C5.5023 9.44161 5.5023 9.35196 5.44781 9.29747L4.7025 8.55216Z" fill="#6D7175"/>
</svg>
