<svg width="18" height="20" viewBox="0 0 18 20" fill="none" xmlns="http://www.w3.org/2000/svg">
<path d="M17.0558 3.64547C17.1518 3.81183 17.1779 4.00954 17.1282 4.19509C17.0784 4.38064 16.957 4.53885 16.7907 4.6349L14.6998 5.84209C14.5334 5.93814 14.3357 5.96417 14.1501 5.91445C13.9646 5.86473 13.8064 5.74333 13.7103 5.57697C13.6143 5.41061 13.5883 5.2129 13.638 5.02735C13.6877 4.84179 13.8091 4.68359 13.9755 4.58754L16.0664 3.38035C16.2327 3.2843 16.4304 3.25827 16.616 3.30799C16.8015 3.35771 16.9597 3.4791 17.0558 3.64547ZM13.1 0.598905C13.2854 0.648699 13.4434 0.770037 13.5394 0.936265C13.6354 1.10249 13.6614 1.30002 13.6119 1.48545L12.9933 3.79412C12.9714 3.88891 12.9307 3.97832 12.8735 4.05703C12.8164 4.13574 12.744 4.20213 12.6606 4.25224C12.5772 4.30236 12.4846 4.33516 12.3883 4.34871C12.292 4.36226 12.1939 4.35626 12.1 4.33109C12.006 4.30591 11.9181 4.26207 11.8415 4.20218C11.7648 4.14229 11.701 4.06757 11.6539 3.98249C11.6067 3.89741 11.5772 3.8037 11.5671 3.70696C11.5569 3.61022 11.5664 3.51243 11.5949 3.41943L12.2135 1.11075C12.2633 0.925381 12.3846 0.767353 12.5508 0.671381C12.7171 0.575409 12.9146 0.549342 13.1 0.598905V0.598905ZM17.7163 8.59456C17.6665 8.77993 17.5452 8.93796 17.3789 9.03393C17.2127 9.1299 17.0152 9.15597 16.8298 9.10641L14.5211 8.4878C14.4263 8.46596 14.3369 8.42524 14.2582 8.36809C14.1795 8.31094 14.1131 8.23852 14.063 8.15516C14.0129 8.07179 13.98 7.97918 13.9665 7.88286C13.953 7.78654 13.9589 7.68848 13.9841 7.59452C14.0093 7.50057 14.0531 7.41265 14.113 7.336C14.1729 7.25936 14.2476 7.19556 14.3327 7.14842C14.4178 7.10128 14.5115 7.07176 14.6082 7.06162C14.705 7.05148 14.8028 7.06093 14.8958 7.0894L17.2045 7.70801C17.3898 7.75781 17.5479 7.87914 17.6438 8.04537C17.7398 8.2116 17.7659 8.40912 17.7163 8.59456V8.59456ZM8.15092 1.25941C8.31728 1.16336 8.51499 1.13733 8.70054 1.18705C8.8861 1.23677 9.0443 1.35817 9.14035 1.52453L10.3475 3.61544C10.4436 3.78181 10.4696 3.97951 10.4199 4.16507C10.3702 4.35062 10.2488 4.50882 10.0824 4.60487C9.91606 4.70092 9.71835 4.72695 9.5328 4.67723C9.34725 4.62751 9.18904 4.50612 9.09299 4.33976L7.8858 2.24884C7.78975 2.08248 7.76372 1.88477 7.81344 1.69922C7.86316 1.51366 7.98456 1.35546 8.15092 1.25941ZM12.3202 7.97089C12.5212 6.90137 11.3744 6.08928 10.4318 6.63348L1.00259 12.0774C-0.00941289 12.6617 0.234085 14.1883 1.37817 14.4277L5.0851 15.2025C5.47598 15.2846 5.81555 15.5212 6.0292 15.8584L8.01224 18.9957C8.63039 19.9737 10.1275 19.6869 10.3413 18.5487L12.3207 7.97173L12.3202 7.97089ZM2.12334 13.1031L10.8266 8.07828L8.99848 17.8453L7.25345 15.0836C7.04431 14.7529 6.7709 14.4677 6.44945 14.2447C6.12799 14.0217 5.76503 13.8655 5.38209 13.7854L2.12334 13.1031Z" fill="#5570F1"/>
</svg>
