<svg width="17" height="17" viewBox="0 0 17 17" fill="none" xmlns="http://www.w3.org/2000/svg">
<path d="M16.5001 16.5003L12.7617 12.7553M7.75008 4.83366V7.75033M7.75008 7.75033V10.667M7.75008 7.75033H10.6667M7.75008 7.75033H4.83341M14.8334 7.75033C14.8334 9.62894 14.0871 11.4306 12.7588 12.759C11.4304 14.0874 9.6287 14.8337 7.75008 14.8337C5.87146 14.8337 4.06979 14.0874 2.74141 12.759C1.41303 11.4306 0.666748 9.62894 0.666748 7.75033C0.666748 5.87171 1.41303 4.07004 2.74141 2.74165C4.06979 1.41327 5.87146 0.666992 7.75008 0.666992C9.6287 0.666992 11.4304 1.41327 12.7588 2.74165C14.0871 4.07004 14.8334 5.87171 14.8334 7.75033V7.75033Z" stroke="#6D7175" stroke-linecap="round"/>
</svg>
